<?xml version="1.0" encoding="UTF-8"?>
<svg id="Layer_1" xmlns="http://www.w3.org/2000/svg" viewBox="0 0 212.43 28.49">
  <defs>
    <style>
      .cls-1 {
        fill: #fff;
      }

      .cls-2 {
        fill: #76a59e;
      }
    </style>
  </defs>
  <path class="cls-1" d="M16.01,17.55c.48,0,.83-.1,1.03-.31.2-.21.33-.5.38-.89s.08-.82.08-1.3v-4.7c0-.3,0-.62.02-.95.02-.33.04-.67.08-1.02-.28.02-.59.03-.92.04-.33,0-.61.02-.83.04v-1.6h.92c.67,0,1.23-.08,1.68-.24.45-.16.77-.32.95-.49h1.05c.03.2.06.52.07.95s.03.87.03,1.3c.38-.5.78-.93,1.2-1.29.42-.36.85-.63,1.29-.82s.9-.29,1.36-.29c.53,0,1,.15,1.41.45.41.3.61.78.61,1.45,0,.22-.05.45-.16.7-.11.25-.27.46-.5.62s-.53.25-.91.25c-.35,0-.68-.11-.99-.34-.31-.22-.47-.59-.49-1.09-.35-.02-.71.11-1.09.38-.38.27-.71.59-1.01.98-.3.38-.53.77-.7,1.17l.02,4.75c0,.27,0,.59-.02.96-.02.38-.04.74-.08,1.09.27-.03.55-.05.85-.06s.55-.01.75-.01v1.6h-6.08v-1.33Z"/>
  <path class="cls-1" d="M33.11,19.27c-1.2,0-2.27-.27-3.2-.81-.93-.54-1.66-1.31-2.17-2.3-.52-.99-.78-2.16-.78-3.51,0-1.17.26-2.26.78-3.27.52-1.02,1.25-1.84,2.19-2.46.94-.62,2.04-.94,3.29-.94.7,0,1.38.1,2.03.3.65.2,1.23.53,1.75,1,.52.47.93,1.08,1.24,1.85.31.77.45,1.7.44,2.8l-8.4.15c0,1.03.12,1.95.36,2.74.24.79.64,1.42,1.19,1.88.55.46,1.28.69,2.18.69.4,0,.83-.07,1.29-.21.46-.14.91-.36,1.36-.65s.85-.65,1.2-1.09l.95.88c-.55.8-1.16,1.42-1.83,1.85-.67.43-1.33.73-2,.89-.67.16-1.28.24-1.85.24ZM30.39,10.58h5.2c-.02-.67-.11-1.23-.29-1.69-.18-.46-.43-.81-.76-1.05-.33-.24-.74-.36-1.23-.36-.82,0-1.47.27-1.96.81-.49.54-.81,1.3-.96,2.29Z"/>
  <path class="cls-1" d="M46.44,19.27c-1.2,0-2.27-.27-3.2-.81-.93-.54-1.66-1.31-2.17-2.3-.52-.99-.78-2.16-.78-3.51,0-1.17.26-2.26.78-3.27.52-1.02,1.25-1.84,2.19-2.46.94-.62,2.04-.94,3.29-.94.7,0,1.38.1,2.03.3.65.2,1.23.53,1.75,1,.52.47.93,1.08,1.24,1.85.31.77.45,1.7.44,2.8l-8.4.15c0,1.03.12,1.95.36,2.74.24.79.64,1.42,1.19,1.88.55.46,1.28.69,2.18.69.4,0,.83-.07,1.29-.21.46-.14.91-.36,1.36-.65s.85-.65,1.2-1.09l.95.88c-.55.8-1.16,1.42-1.83,1.85-.67.43-1.33.73-2,.89-.67.16-1.28.24-1.85.24ZM43.71,10.58h5.2c-.02-.67-.11-1.23-.29-1.69-.18-.46-.43-.81-.76-1.05-.33-.24-.74-.36-1.23-.36-.82,0-1.47.27-1.96.81-.49.54-.81,1.3-.96,2.29Z"/>
  <path class="cls-1" d="M53.59,18.88v-1.33c.48,0,.83-.1,1.03-.31.2-.21.33-.5.38-.89s.08-.82.08-1.3v-4.7c0-.3,0-.62.02-.95.02-.33.04-.67.08-1.02-.27.02-.57.03-.91.05-.34.02-.62.03-.84.05v-1.62c.75,0,1.37-.04,1.85-.11.48-.07.86-.17,1.12-.29s.46-.23.58-.33h1.05c.03.18.05.33.05.45s0,.24.02.36.04.3.08.54c.33-.28.72-.54,1.16-.76s.89-.4,1.34-.54c.45-.13.87-.2,1.25-.2,1.5,0,2.58.44,3.22,1.32.65.88.98,2.29.98,4.23v3.77c0,.27,0,.59-.01.96,0,.38-.04.74-.09,1.09.28-.03.58-.05.88-.06.3,0,.55-.01.75-.01v1.6h-6.07v-1.33c.48,0,.83-.1,1.04-.31s.34-.5.39-.89.08-.82.08-1.3l-.03-3.55c0-1.2-.18-2.1-.54-2.69-.36-.59-.95-.89-1.76-.89-.48.02-.96.13-1.42.35-.47.22-.86.49-1.18.83.02.2.03.41.03.62v.65l-.03,4.92c0,.27,0,.59-.01.96,0,.38-.04.74-.09,1.09.27-.03.55-.05.86-.06s.56-.01.76-.01v1.6h-6.08Z"/>
  <path class="cls-1" d="M68.16,25.25v-1.33c.48,0,.83-.1,1.04-.31.21-.21.34-.5.39-.89.05-.38.08-.82.08-1.3l.03-11.07c0-.3,0-.62.01-.95,0-.33.04-.67.09-1.02-.28.02-.6.03-.94.05-.34.02-.62.03-.84.05v-1.62c.77,0,1.39-.04,1.86-.11.47-.07.84-.17,1.1-.29s.45-.23.56-.33h1.08c.03.17.06.37.08.6s.03.45.05.65c.55-.48,1.13-.84,1.75-1.06.62-.23,1.21-.34,1.78-.34,1,0,1.89.25,2.67.76.78.51,1.4,1.23,1.85,2.18.45.94.67,2.05.67,3.34,0,1.37-.27,2.58-.81,3.64-.54,1.06-1.28,1.89-2.21,2.49-.93.6-2.01.9-3.23.9-.5,0-.95-.05-1.35-.16s-.78-.25-1.12-.41v2.97c0,.27,0,.59-.01.96s-.04.74-.09,1.09c.27-.03.55-.05.85-.06.3,0,.55-.01.75-.01v1.6h-6.08ZM74.94,17.7c.77-.02,1.39-.25,1.86-.71.47-.46.82-1.07,1.04-1.84.22-.77.33-1.6.33-2.5,0-.82-.1-1.59-.31-2.32s-.54-1.33-.99-1.78c-.45-.45-1.05-.67-1.8-.67-.47.02-.9.13-1.31.35-.41.22-.75.5-1.01.85v8c.27.18.59.33.97.45.38.12.79.18,1.23.18Z"/>
  <path class="cls-1" d="M89.71,19.27c-1.18,0-2.26-.26-3.23-.79-.97-.52-1.73-1.27-2.29-2.22s-.84-2.08-.84-3.36c0-1.35.28-2.55.85-3.6.57-1.05,1.33-1.87,2.29-2.45s2.01-.88,3.16-.88,2.25.27,3.2.8c.95.53,1.7,1.27,2.26,2.23s.84,2.08.84,3.38c0,1.37-.27,2.57-.81,3.61-.54,1.04-1.28,1.85-2.23,2.43-.94.57-2.01.86-3.21.86ZM89.84,17.75c.75,0,1.33-.23,1.72-.7.4-.47.68-1.06.84-1.79.16-.73.24-1.47.24-2.24,0-.65-.05-1.31-.16-1.98-.11-.67-.28-1.27-.51-1.81-.23-.54-.54-.97-.92-1.3-.38-.33-.85-.49-1.4-.49-.73.02-1.32.26-1.75.72-.43.47-.75,1.06-.94,1.78s-.29,1.47-.29,2.27c0,.9.11,1.78.32,2.64.22.86.56,1.56,1.03,2.1.47.54,1.08.8,1.83.79Z"/>
  <path class="cls-1" d="M97.36,17.55c.48,0,.83-.1,1.03-.31.2-.21.33-.5.38-.89s.08-.82.08-1.3v-4.67c0-.28,0-.6.02-.94.02-.34.04-.7.08-1.06-.28.02-.59.03-.92.05-.33.02-.61.03-.83.05v-1.62c.75,0,1.37-.04,1.86-.11.49-.07.88-.17,1.15-.29.27-.12.47-.23.59-.33h1.12v9.17c0,.27,0,.59-.01.96,0,.38-.04.74-.09,1.09.27-.03.55-.05.86-.06s.56-.01.76-.01v1.6h-6.08v-1.33ZM100.24,3.98c-.48,0-.89-.18-1.22-.54-.33-.36-.5-.8-.5-1.31s.17-.96.51-1.33c.34-.37.75-.55,1.21-.55s.89.18,1.21.55c.33.37.49.81.49,1.33s-.16.95-.47,1.31c-.32.36-.73.54-1.23.54Z"/>
  <path class="cls-1" d="M104.91,18.88v-1.33c.48,0,.83-.1,1.03-.31.2-.21.33-.5.38-.89s.08-.82.08-1.3v-4.7c0-.3,0-.62.02-.95.02-.33.04-.67.08-1.02-.27.02-.57.03-.91.05-.34.02-.62.03-.84.05v-1.62c.75,0,1.37-.04,1.85-.11.48-.07.86-.17,1.12-.29s.46-.23.58-.33h1.05c.03.18.05.33.05.45s0,.24.02.36.04.3.08.54c.33-.28.72-.54,1.16-.76s.89-.4,1.34-.54c.45-.13.87-.2,1.25-.2,1.5,0,2.58.44,3.22,1.32.65.88.98,2.29.98,4.23v3.77c0,.27,0,.59-.01.96,0,.38-.04.74-.09,1.09.28-.03.58-.05.88-.06.3,0,.55-.01.75-.01v1.6h-6.07v-1.33c.48,0,.83-.1,1.04-.31s.34-.5.39-.89.08-.82.08-1.3l-.03-3.55c0-1.2-.18-2.1-.54-2.69-.36-.59-.95-.89-1.76-.89-.48.02-.96.13-1.42.35-.47.22-.86.49-1.18.83.02.2.03.41.03.62v.65l-.03,4.92c0,.27,0,.59-.01.96,0,.38-.04.74-.09,1.09.27-.03.55-.05.86-.06s.56-.01.76-.01v1.6h-6.08Z"/>
  <path class="cls-1" d="M124.74,19.27c-.47,0-.92-.06-1.36-.17-.44-.12-.84-.33-1.2-.65s-.65-.79-.86-1.41-.33-1.45-.33-2.49l.05-6.45-1.77.02v-1.75c.5-.02.98-.19,1.45-.51.47-.32.88-.75,1.22-1.29s.58-1.1.7-1.7h1.52l-.02,3.5h3.52v1.6l-3.52.07-.03,6.43c0,.5.05.96.14,1.39.09.43.26.76.5,1.01.24.25.57.38.99.38.32,0,.68-.1,1.09-.3.41-.2.82-.6,1.24-1.2l1.03.92c-.42.63-.85,1.12-1.29,1.48s-.87.61-1.27.77c-.41.17-.77.27-1.09.3-.32.03-.55.05-.7.05Z"/>
  <path class="cls-1" d="M142.31,19.27c-1.12,0-2.15-.25-3.09-.75s-1.69-1.23-2.25-2.19c-.56-.96-.84-2.11-.84-3.46,0-.92.16-1.79.48-2.61.32-.83.76-1.56,1.34-2.2.58-.64,1.26-1.15,2.06-1.52.8-.38,1.68-.56,2.65-.56,1.02,0,1.88.15,2.58.46.7.31,1.23.72,1.6,1.23s.55,1.05.55,1.61c0,.45-.13.84-.39,1.18-.26.33-.63.51-1.11.52-.57.02-.96-.15-1.19-.49-.22-.34-.34-.66-.34-.96,0-.17.02-.35.08-.54.05-.19.13-.37.25-.54-.12-.3-.31-.52-.58-.66s-.54-.24-.83-.29-.51-.07-.67-.05c-.92.03-1.67.45-2.28,1.25-.6.8-.9,1.97-.9,3.5,0,.92.13,1.76.39,2.54.26.78.65,1.4,1.19,1.88.53.48,1.22.72,2.05.74.73.02,1.44-.16,2.12-.54.68-.38,1.24-.86,1.67-1.46l1,.92c-.55.78-1.14,1.39-1.78,1.83-.63.43-1.27.74-1.91.91-.64.17-1.26.26-1.86.26Z"/>
  <path class="cls-1" d="M156.24,18.88c-.05-.25-.08-.46-.09-.64,0-.17-.02-.38-.04-.61-.57.57-1.17.98-1.81,1.25s-1.3.4-1.99.4c-1.13,0-2-.31-2.61-.92-.61-.62-.91-1.38-.91-2.27,0-.8.22-1.48.65-2.04.43-.56,1-1.02,1.7-1.38s1.47-.63,2.33-.83c.85-.19,1.69-.3,2.52-.31v-1.38c0-.48-.05-.93-.16-1.34-.11-.41-.3-.73-.59-.98-.28-.24-.7-.36-1.25-.36-.37.02-.74.1-1.11.24-.38.14-.67.36-.89.66.13.15.22.31.25.49.03.18.05.33.05.46,0,.3-.12.61-.35.94-.23.32-.61.48-1.12.46-.45-.02-.8-.18-1.04-.48-.24-.3-.36-.66-.36-1.08,0-.63.23-1.19.69-1.66.46-.48,1.08-.85,1.86-1.12.78-.28,1.66-.41,2.62-.41,1.43,0,2.53.38,3.3,1.12s1.14,1.95,1.12,3.6v1.59c0,.48,0,.95-.01,1.42s-.01,1-.01,1.59c0,.25,0,.56-.02.94s-.04.75-.08,1.11c.3-.03.6-.05.91-.06s.56-.02.76-.04v1.62h-4.33ZM155.96,13c-.5.03-.99.11-1.48.24s-.92.3-1.3.51c-.38.22-.69.49-.91.81-.23.33-.33.7-.31,1.11.02.52.18.9.5,1.14.32.24.68.36,1.1.36.48,0,.92-.1,1.31-.3s.75-.47,1.09-.8v-3.08Z"/>
  <path class="cls-1" d="M161.16,25.25v-1.33c.48,0,.83-.1,1.04-.31.21-.21.34-.5.39-.89.05-.38.08-.82.08-1.3l.03-11.07c0-.3,0-.62.01-.95,0-.33.04-.67.09-1.02-.28.02-.6.03-.94.05-.34.02-.62.03-.84.05v-1.62c.77,0,1.39-.04,1.86-.11.47-.07.84-.17,1.1-.29s.45-.23.56-.33h1.08c.03.17.06.37.08.6s.03.45.05.65c.55-.48,1.13-.84,1.75-1.06.62-.23,1.21-.34,1.78-.34,1,0,1.89.25,2.67.76.78.51,1.4,1.23,1.85,2.18.45.94.67,2.05.67,3.34,0,1.37-.27,2.58-.81,3.64-.54,1.06-1.28,1.89-2.21,2.49-.93.6-2.01.9-3.23.9-.5,0-.95-.05-1.35-.16s-.78-.25-1.12-.41v2.97c0,.27,0,.59-.01.96s-.04.74-.09,1.09c.27-.03.55-.05.85-.06.3,0,.55-.01.75-.01v1.6h-6.08ZM167.93,17.7c.77-.02,1.39-.25,1.86-.71.47-.46.82-1.07,1.04-1.84.22-.77.33-1.6.33-2.5,0-.82-.1-1.59-.31-2.32s-.54-1.33-.99-1.78c-.45-.45-1.05-.67-1.8-.67-.47.02-.9.13-1.31.35-.41.22-.75.5-1.01.85v8c.27.18.59.33.97.45.38.12.79.18,1.23.18Z"/>
  <path class="cls-1" d="M175.96,17.55c.48,0,.83-.1,1.03-.31.2-.21.33-.5.38-.89s.08-.82.08-1.3v-4.67c0-.28,0-.6.02-.94.02-.34.04-.7.08-1.06-.28.02-.59.03-.92.05-.33.02-.61.03-.83.05v-1.62c.75,0,1.37-.04,1.86-.11.49-.07.88-.17,1.15-.29.27-.12.47-.23.59-.33h1.12v9.17c0,.27,0,.59-.01.96,0,.38-.04.74-.09,1.09.27-.03.55-.05.86-.06s.56-.01.76-.01v1.6h-6.08v-1.33ZM178.83,3.98c-.48,0-.89-.18-1.22-.54-.33-.36-.5-.8-.5-1.31s.17-.96.51-1.33c.34-.37.75-.55,1.21-.55s.89.18,1.21.55c.33.37.49.81.49,1.33s-.16.95-.47,1.31c-.32.36-.73.54-1.23.54Z"/>
  <path class="cls-1" d="M188.26,19.27c-.47,0-.92-.06-1.36-.17-.44-.12-.84-.33-1.2-.65s-.65-.79-.86-1.41-.33-1.45-.33-2.49l.05-6.45-1.77.02v-1.75c.5-.02.98-.19,1.45-.51.47-.32.88-.75,1.22-1.29s.58-1.1.7-1.7h1.52l-.02,3.5h3.52v1.6l-3.52.07-.03,6.43c0,.5.05.96.14,1.39.09.43.26.76.5,1.01.24.25.57.38.99.38.32,0,.68-.1,1.09-.3.41-.2.82-.6,1.24-1.2l1.03.92c-.42.63-.85,1.12-1.29,1.48s-.87.61-1.27.77c-.41.17-.77.27-1.09.3-.32.03-.55.05-.7.05Z"/>
  <path class="cls-1" d="M200.83,18.88c-.05-.25-.08-.46-.09-.64,0-.17-.02-.38-.04-.61-.57.57-1.17.98-1.81,1.25s-1.3.4-1.99.4c-1.13,0-2-.31-2.61-.92-.61-.62-.91-1.38-.91-2.27,0-.8.22-1.48.65-2.04.43-.56,1-1.02,1.7-1.38s1.47-.63,2.33-.83c.85-.19,1.69-.3,2.52-.31v-1.38c0-.48-.05-.93-.16-1.34-.11-.41-.3-.73-.59-.98-.28-.24-.7-.36-1.25-.36-.37.02-.74.1-1.11.24-.38.14-.67.36-.89.66.13.15.22.31.25.49.03.18.05.33.05.46,0,.3-.12.61-.35.94-.23.32-.61.48-1.12.46-.45-.02-.8-.18-1.04-.48-.24-.3-.36-.66-.36-1.08,0-.63.23-1.19.69-1.66.46-.48,1.08-.85,1.86-1.12.78-.28,1.66-.41,2.62-.41,1.43,0,2.53.38,3.3,1.12s1.14,1.95,1.12,3.6v1.59c0,.48,0,.95-.01,1.42s-.01,1-.01,1.59c0,.25,0,.56-.02.94s-.04.75-.08,1.11c.3-.03.6-.05.91-.06s.56-.02.76-.04v1.62h-4.33ZM200.56,13c-.5.03-.99.11-1.48.24s-.92.3-1.3.51c-.38.22-.69.49-.91.81-.23.33-.33.7-.31,1.11.02.52.18.9.5,1.14.32.24.68.36,1.1.36.48,0,.92-.1,1.31-.3s.75-.47,1.09-.8v-3.08Z"/>
  <path class="cls-1" d="M206.36,17.55c.48,0,.83-.1,1.04-.31.21-.21.33-.5.38-.89s.06-.82.06-1.3V4.25c0-.28,0-.6.03-.94.02-.34.04-.7.08-1.06-.28.02-.59.03-.93.05-.33.02-.62.03-.85.05V.73c.77,0,1.4-.04,1.89-.11.49-.07.88-.17,1.15-.29.28-.12.47-.23.59-.33h1.12l.03,15.3c0,.27,0,.59-.03.96s-.05.74-.1,1.09c.28-.03.57-.05.88-.06.3,0,.55-.01.75-.01v1.6h-6.08v-1.33Z"/>
  <circle class="cls-2" cx="12.3" cy="5.32" r="1.8"/>
  <path class="cls-1" d="M14.08,20.79c-.61-.64-1.47-1.11-2.58-1.42s-2.44-.5-3.98-.56c-1.4-.06-2.47-.16-3.21-.3-.74-.14-1.16-.43-1.26-.87-.1-.42.05-.78.46-1.08.41-.3.93-.45,1.58-.45.36,0,.69.02.99.07.3.05.62.08.96.08,1.14,0,2.2-.25,3.18-.75s1.78-1.19,2.39-2.07c.61-.88.91-1.89.91-3.03,0-.72-.14-1.4-.43-2.02-.05-.1-.1-.2-.16-.29-.29.11-.61.18-.94.18-1.43,0-2.58-1.16-2.58-2.58,0-.13.02-.26.04-.39-.15-.05-.3-.12-.46-.16-.66-.17-1.3-.25-1.92-.25-1.08,0-2.12.25-3.11.75-.99.5-1.8,1.2-2.43,2.1s-.94,1.95-.92,3.15c.02,1.04.3,1.94.84,2.7s1.26,1.34,2.16,1.74c-.96.22-1.7.64-2.21,1.26s-.76,1.25-.76,1.89c0,.6.18,1.11.54,1.52.36.41.89.72,1.59.94-.52.2-.99.48-1.41.83-.42.35-.75.75-1,1.21-.25.46-.38.96-.38,1.5,0,.68.23,1.32.71,1.94.47.61,1.24,1.11,2.31,1.5,1.07.39,2.49.58,4.25.58.92,0,1.84-.11,2.76-.33s1.75-.54,2.5-.97c.75-.43,1.35-.97,1.8-1.6.45-.64.67-1.37.67-2.19,0-1.1-.31-1.97-.92-2.61ZM4.74,7.43c.54-.78,1.3-1.17,2.28-1.17.72,0,1.31.22,1.77.66.46.44.81,1.02,1.05,1.74.24.72.36,1.49.36,2.31,0,.7-.12,1.35-.35,1.94-.23.59-.57,1.06-1.02,1.41-.45.35-1.02.52-1.7.52s-1.26-.2-1.74-.6c-.48-.4-.84-.94-1.09-1.63s-.38-1.47-.38-2.35c0-1.1.27-2.04.81-2.82ZM11.29,26.12c-.89.6-2.15.9-3.77.9-1.44,0-2.59-.28-3.45-.84-.86-.56-1.29-1.3-1.29-2.22.02-.5.15-.98.4-1.44.25-.46.61-.85,1.07-1.17.46.08.96.13,1.5.15.54.02,1.07.05,1.59.09,1.06.02,1.98.1,2.78.25.79.15,1.4.4,1.84.75.44.35.66.84.66,1.49,0,.76-.45,1.44-1.33,2.04Z"/>
</svg>